ffmpeg started on 2025-07-20 at 12:13:57
Report written to "D:\Convert\FFMetrics\reports\ssim_report-6.txt"
Log level: 32
Command line:
ffmpeg -hide_banner -nostdin -i "G:\\\xc0\xed\xe8\xec\xe5\\\xce\xed\xe3\xee\xe8\xed\xe3\xe8\\!_10_\xc2\xe5\xf1\xed\xe0_2018\\\xcf\xee\xf2\xe5\xf0\xff\xed\xed\xe0\xff \xef\xe5\xf1\xed\xff\\[SHIZA Project] Lost Song ONA [06] [MVO]_HEVC.mkv" -i "G:\\\xc0\xed\xe8\xec\xe5\\\xce\xed\xe3\xee\xe8\xed\xe3\xe8\\!_10_\xc2\xe5\xf1\xed\xe0_2018\\\xcf\xee\xf2\xe5\xf0\xff\xed\xed\xe0\xff \xef\xe5\xf1\xed\xff\\[SHIZA Project] Lost Song ONA [06] [MVO].mkv" -lavfi "[0:v]settb=AVTB,setpts=PTS-STARTPTS,format=pix_fmts=yuv420p10,fps=24000/1001,scale=1280:720:flags=bicubic[main];[1:v]settb=AVTB,setpts=PTS-STARTPTS,format=pix_fmts=yuv420p,fps=24000/1001,scale=1280:720:flags=bicubic[ref];[main][ref]ssim=eof_action=endall:stats_file='D\\:/Convert/FFMetrics/logs/ssim_logfile-6.txt'" -f null -
Input #0, matroska,webm, from 'G:\Аниме\Онгоинги\!_10_Весна_2018\Потерянная песня\[SHIZA Project] Lost Song ONA [06] [MVO]_HEVC.mkv':
  Metadata:
    ENCODER         : Lavf61.7.100
  Duration: 00:23:57.14, start: -0.021000, bitrate: 521 kb/s
  Stream #0:0(rus): Video: hevc (Main 10), yuv420p10le(tv, bt709, progressive), 1280x720 [SAR 1:1 DAR 16:9], 23.98 fps, 23.98 tbr, 1k tbn
      Metadata:
        title           : www.SHIZA-Project.com
        ENCODER         : Lavc61.19.100 libx265
        BPS             : 325307
        DURATION        : 00:23:57.102708333
        NUMBER_OF_FRAMES: 34456
        NUMBER_OF_BYTES : 58437424
        _STATISTICS_WRITING_APP: mkvpropedit v66.0.0 ('Josie') 64-bit
        _STATISTICS_WRITING_DATE_UTC: 2025-07-19 12:56:35
        _STATISTICS_TAGS: BPS DURATION NUMBER_OF_FRAMES NUMBER_OF_BYTES
  Stream #0:1(rus): Audio: aac (LC), 48000 Hz, stereo, fltp (default)
      Metadata:
        title           : MVO SHIZA Project
        ENCODER         : Lavc61.19.100 aac
        BPS             : 191979
        DURATION        : 00:23:57.120000000
        NUMBER_OF_FRAMES: 67366
        NUMBER_OF_BYTES : 34487136
        _STATISTICS_WRITING_APP: mkvpropedit v66.0.0 ('Josie') 64-bit
        _STATISTICS_WRITING_DATE_UTC: 2025-07-19 12:56:35
        _STATISTICS_TAGS: BPS DURATION NUMBER_OF_FRAMES NUMBER_OF_BYTES
  Stream #0:2(rus): Subtitle: ass (ssa) (default)
      Metadata:
        title           : Song
        BPS             : 21
        DURATION        : 00:03:39.590000000
        NUMBER_OF_FRAMES: 8
        NUMBER_OF_BYTES : 577
        _STATISTICS_WRITING_APP: mkvpropedit v66.0.0 ('Josie') 64-bit
        _STATISTICS_WRITING_DATE_UTC: 2025-07-19 12:56:35
        _STATISTICS_TAGS: BPS DURATION NUMBER_OF_FRAMES NUMBER_OF_BYTES
Input #1, matroska,webm, from 'G:\Аниме\Онгоинги\!_10_Весна_2018\Потерянная песня\[SHIZA Project] Lost Song ONA [06] [MVO].mkv':
  Metadata:
    encoder         : libebml v1.3.0 + libmatroska v1.4.0
    creation_time   : 2018-06-24T21:13:02.000000Z
  Duration: 00:23:57.12, start: 0.000000, bitrate: 1139 kb/s
  Stream #1:0(rus): Video: h264 (Main), yuv420p(progressive), 1280x720 [SAR 1:1 DAR 16:9], 23.98 fps, 23.98 tbr, 1k tbn
      Metadata:
        title           : www.SHIZA-Project.com
        BPS             : 945307
        BPS-eng         : 945307
        DURATION        : 00:23:57.103000000
        DURATION-eng    : 00:23:57.103000000
        NUMBER_OF_FRAMES: 34456
        NUMBER_OF_FRAMES-eng: 34456
        NUMBER_OF_BYTES : 169813046
        NUMBER_OF_BYTES-eng: 169813046
        _STATISTICS_WRITING_APP: mkvmerge v7.8.0 ('River Man') 32bit built on Mar 27 2015 16:18:02
        _STATISTICS_WRITING_APP-eng: mkvmerge v7.8.0 ('River Man') 32bit built on Mar 27 2015 16:18:02
        _STATISTICS_WRITING_DATE_UTC: 2018-06-24 20:14:57
        _STATISTICS_WRITING_DATE_UTC-eng: 2018-06-24 20:14:57
        _STATISTICS_TAGS: BPS DURATION NUMBER_OF_FRAMES NUMBER_OF_BYTES
        _STATISTICS_TAGS-eng: BPS DURATION NUMBER_OF_FRAMES NUMBER_OF_BYTES
  Stream #1:1(rus): Audio: aac (LC), 48000 Hz, stereo, fltp (default)
      Metadata:
        title           : MVO SHIZA Project
        BPS             : 192000
        BPS-eng         : 192000
        DURATION        : 00:23:57.120000000
        DURATION-eng    : 00:23:57.120000000
        NUMBER_OF_FRAMES: 67365
        NUMBER_OF_FRAMES-eng: 67365
        NUMBER_OF_BYTES : 34490881
        NUMBER_OF_BYTES-eng: 34490881
        _STATISTICS_WRITING_APP: mkvmerge v7.8.0 ('River Man') 32bit built on Mar 27 2015 16:18:02
        _STATISTICS_WRITING_APP-eng: mkvmerge v7.8.0 ('River Man') 32bit built on Mar 27 2015 16:18:02
        _STATISTICS_WRITING_DATE_UTC: 2018-06-24 20:14:57
        _STATISTICS_WRITING_DATE_UTC-eng: 2018-06-24 20:14:57
        _STATISTICS_TAGS: BPS DURATION NUMBER_OF_FRAMES NUMBER_OF_BYTES
        _STATISTICS_TAGS-eng: BPS DURATION NUMBER_OF_FRAMES NUMBER_OF_BYTES
  Stream #1:2(rus): Subtitle: ass (ssa) (default)
      Metadata:
        title           : Song
        BPS             : 21
        BPS-eng         : 21
        DURATION        : 00:03:39.590000000
        DURATION-eng    : 00:03:39.590000000
        NUMBER_OF_FRAMES: 8
        NUMBER_OF_FRAMES-eng: 8
        NUMBER_OF_BYTES : 577
        NUMBER_OF_BYTES-eng: 577
        _STATISTICS_WRITING_APP: mkvmerge v7.8.0 ('River Man') 32bit built on Mar 27 2015 16:18:02
        _STATISTICS_WRITING_APP-eng: mkvmerge v7.8.0 ('River Man') 32bit built on Mar 27 2015 16:18:02
        _STATISTICS_WRITING_DATE_UTC: 2018-06-24 20:14:57
        _STATISTICS_WRITING_DATE_UTC-eng: 2018-06-24 20:14:57
        _STATISTICS_TAGS: BPS DURATION NUMBER_OF_FRAMES NUMBER_OF_BYTES
        _STATISTICS_TAGS-eng: BPS DURATION NUMBER_OF_FRAMES NUMBER_OF_BYTES
Stream mapping:
  Stream #0:0 (hevc) -> settb:default
  Stream #1:0 (h264) -> settb:default
  ssim:default -> Stream #0:0 (wrapped_avframe)
  Stream #0:1 -> #0:1 (aac (native) -> pcm_s16le (native))
[swscaler @ 000001d91894afc0] No accelerated colorspace conversion found from yuv420p to bgr48le.
[swscaler @ 000001d918b1edc0] No accelerated colorspace conversion found from yuv420p to bgr48le.
[swscaler @ 000001d918c1a400] No accelerated colorspace conversion found from yuv420p to bgr48le.
[swscaler @ 000001d918c63300] No accelerated colorspace conversion found from yuv420p to bgr48le.
[swscaler @ 000001d918cd2640] No accelerated colorspace conversion found from yuv420p to bgr48le.
[swscaler @ 000001d918d4ce80] No accelerated colorspace conversion found from yuv420p to bgr48le.
[swscaler @ 000001d918daabc0] No accelerated colorspace conversion found from yuv420p to bgr48le.
[swscaler @ 000001d918e1a740] No accelerated colorspace conversion found from yuv420p to bgr48le.
[swscaler @ 000001d918e96040] No accelerated colorspace conversion found from yuv420p to bgr48le.
[swscaler @ 000001d918efebc0] No accelerated colorspace conversion found from yuv420p to bgr48le.
[swscaler @ 000001d918f6c040] No accelerated colorspace conversion found from yuv420p to bgr48le.
[swscaler @ 000001d918fe8040] No accelerated colorspace conversion found from yuv420p to bgr48le.
[swscaler @ 000001d919059040] No accelerated colorspace conversion found from yuv420p to bgr48le.
[swscaler @ 000001d9190b7040] No accelerated colorspace conversion found from yuv420p to bgr48le.
[swscaler @ 000001d91913d040] No accelerated colorspace conversion found from yuv420p to bgr48le.
[swscaler @ 000001d9191b0040] No accelerated colorspace conversion found from yuv420p to bgr48le.
Output #0, null, to 'pipe:':
  Metadata:
    encoder         : Lavf61.7.100
  Stream #0:0: Video: wrapped_avframe, yuv420p10le(tv, bt709, progressive), 1280x720 [SAR 1:1 DAR 16:9], q=2-31, 200 kb/s, 23.98 fps, 23.98 tbn
      Metadata:
        encoder         : Lavc61.19.100 wrapped_avframe
  Stream #0:1(rus): Audio: pcm_s16le, 48000 Hz, stereo, s16, 1536 kb/s (default)
      Metadata:
        title           : MVO SHIZA Project
        _STATISTICS_TAGS: BPS DURATION NUMBER_OF_FRAMES NUMBER_OF_BYTES
        BPS             : 191979
        DURATION        : 00:23:57.120000000
        NUMBER_OF_FRAMES: 67366
        NUMBER_OF_BYTES : 34487136
        _STATISTICS_WRITING_APP: mkvpropedit v66.0.0 ('Josie') 64-bit
        _STATISTICS_WRITING_DATE_UTC: 2025-07-19 12:56:35
        encoder         : Lavc61.19.100 pcm_s16le
frame=   73 fps=0.0 q=-0.0 size=N/A time=00:00:03.04 bitrate=N/A speed=   6x    frame=  168 fps=163 q=-0.0 size=N/A time=00:00:07.00 bitrate=N/A speed=6.81x    frame=  259 fps=167 q=-0.0 size=N/A time=00:00:10.80 bitrate=N/A speed=6.98x    frame=  355 fps=173 q=-0.0 size=N/A time=00:00:14.80 bitrate=N/A speed= 7.2x    frame=  449 fps=174 q=-0.0 size=N/A time=00:00:18.72 bitrate=N/A speed=7.26x    frame=  540 fps=175 q=-0.0 size=N/A time=00:00:22.52 bitrate=N/A speed=7.28x    frame=  631 fps=175 q=-0.0 size=N/A time=00:00:26.31 bitrate=N/A speed=7.29x    frame=  722 fps=175 q=-0.0 size=N/A time=00:00:30.11 bitrate=N/A speed= 7.3x    frame=  802 fps=173 q=-0.0 size=N/A time=00:00:33.45 bitrate=N/A speed=7.22x    frame=  892 fps=173 q=-0.0 size=N/A time=00:00:37.20 bitrate=N/A speed=7.22x    frame=  977 fps=172 q=-0.0 size=N/A time=00:00:40.74 bitrate=N/A speed=7.19x    frame= 1063 fps=172 q=-0.0 size=N/A time=00:00:44.33 bitrate=N/A speed=7.17x    frame= 1142 fps=170 q=-0.0 size=N/A time=00:00:47.63 bitrate=N/A speed=7.11x    frame= 1235 fps=171 q=-0.0 size=N/A time=00:00:51.50 bitrate=N/A speed=7.13x    frame= 1319 fps=171 q=-0.0 size=N/A time=00:00:55.01 bitrate=N/A speed=7.12x    frame= 1402 fps=170 q=-0.0 size=N/A time=00:00:58.47 bitrate=N/A speed=7.09x    frame= 1493 fps=171 q=-0.0 size=N/A time=00:01:02.27 bitrate=N/A speed=7.11x    frame= 1569 fps=169 q=-0.0 size=N/A time=00:01:05.44 bitrate=N/A speed=7.05x    frame= 1669 fps=170 q=-0.0 size=N/A time=00:01:09.61 bitrate=N/A speed=7.11x    frame= 1753 fps=170 q=-0.0 size=N/A time=00:01:13.11 bitrate=N/A speed= 7.1x    frame= 1841 fps=170 q=-0.0 size=N/A time=00:01:16.78 bitrate=N/A speed=7.09x    frame= 1937 fps=171 q=-0.0 size=N/A time=00:01:20.78 bitrate=N/A speed=7.12x    frame= 2027 fps=171 q=-0.0 size=N/A time=00:01:24.54 bitrate=N/A speed=7.13x    frame= 2122 fps=171 q=-0.0 size=N/A time=00:01:28.50 bitrate=N/A speed=7.15x    frame= 2214 fps=172 q=-0.0 size=N/A time=00:01:32.34 bitrate=N/A speed=7.16x    frame= 2296 fps=171 q=-0.0 size=N/A time=00:01:35.76 bitrate=N/A speed=7.14x    frame= 2382 fps=171 q=-0.0 size=N/A time=00:01:39.34 bitrate=N/A speed=7.14x    frame= 2470 fps=171 q=-0.0 size=N/A time=00:01:43.01 bitrate=N/A speed=7.14x    frame= 2554 fps=171 q=-0.0 size=N/A time=00:01:46.52 bitrate=N/A speed=7.12x    frame= 2637 fps=170 q=-0.0 size=N/A time=00:01:49.98 bitrate=N/A speed=7.11x    frame= 2717 fps=170 q=-0.0 size=N/A time=00:01:53.32 bitrate=N/A speed=7.09x    frame= 2802 fps=170 q=-0.0 size=N/A time=00:01:56.86 bitrate=N/A speed=7.08x    frame= 2886 fps=170 q=-0.0 size=N/A time=00:02:00.37 bitrate=N/A speed=7.08x    frame= 2968 fps=169 q=-0.0 size=N/A time=00:02:03.79 bitrate=N/A speed=7.06x    frame= 3062 fps=170 q=-0.0 size=N/A time=00:02:07.71 bitrate=N/A speed=7.08x    frame= 3152 fps=170 q=-0.0 size=N/A time=00:02:11.46 bitrate=N/A speed=7.09x    frame= 3243 fps=170 q=-0.0 size=N/A time=00:02:15.26 bitrate=N/A speed=7.09x    frame= 3325 fps=170 q=-0.0 size=N/A time=00:02:18.68 bitrate=N/A speed=7.08x    frame= 3423 fps=170 q=-0.0 size=N/A time=00:02:22.76 bitrate=N/A speed= 7.1x    frame= 3505 fps=170 q=-0.0 size=N/A time=00:02:26.18 bitrate=N/A speed=7.09x    frame= 3589 fps=170 q=-0.0 size=N/A time=00:02:29.69 bitrate=N/A speed=7.08x    frame= 3672 fps=170 q=-0.0 size=N/A time=00:02:33.15 bitrate=N/A speed=7.07x    frame= 3758 fps=170 q=-0.0 size=N/A time=00:02:36.73 bitrate=N/A speed=7.07x    frame= 3846 fps=170 q=-0.0 size=N/A time=00:02:40.41 bitrate=N/A speed=7.07x    frame= 3933 fps=170 q=-0.0 size=N/A time=00:02:44.03 bitrate=N/A speed=7.07x    frame= 4017 fps=169 q=-0.0 size=N/A time=00:02:47.54 bitrate=N/A speed=7.06x    frame= 4105 fps=169 q=-0.0 size=N/A time=00:02:51.21 bitrate=N/A speed=7.07x    frame= 4187 fps=169 q=-0.0 size=N/A time=00:02:54.63 bitrate=N/A speed=7.06x    frame= 4274 fps=169 q=-0.0 size=N/A time=00:02:58.26 bitrate=N/A speed=7.06x    frame= 4356 fps=169 q=-0.0 size=N/A time=00:03:01.68 bitrate=N/A speed=7.05x    frame= 4443 fps=169 q=-0.0 size=N/A time=00:03:05.31 bitrate=N/A speed=7.05x    frame= 4528 fps=169 q=-0.0 size=N/A time=00:03:08.85 bitrate=N/A speed=7.04x    frame= 4620 fps=169 q=-0.0 size=N/A time=00:03:12.69 bitrate=N/A speed=7.05x    frame= 4705 fps=169 q=-0.0 size=N/A time=00:03:16.23 bitrate=N/A speed=7.05x    frame= 4785 fps=169 q=-0.0 size=N/A time=00:03:19.57 bitrate=N/A speed=7.04x    frame= 4880 fps=169 q=-0.0 size=N/A time=00:03:23.53 bitrate=N/A speed=7.05x    frame= 4968 fps=169 q=-0.0 size=N/A time=00:03:27.20 bitrate=N/A speed=7.05x    frame= 5054 fps=169 q=-0.0 size=N/A time=00:03:30.79 bitrate=N/A speed=7.05x    frame= 5144 fps=169 q=-0.0 size=N/A time=00:03:34.54 bitrate=N/A speed=7.05x    frame= 5234 fps=169 q=-0.0 size=N/A time=00:03:38.30 bitrate=N/A speed=7.06x    frame= 5326 fps=169 q=-0.0 size=N/A time=00:03:42.13 bitrate=N/A speed=7.06x    frame= 5416 fps=169 q=-0.0 size=N/A time=00:03:45.89 bitrate=N/A speed=7.07x    frame= 5505 fps=170 q=-0.0 size=N/A time=00:03:49.60 bitrate=N/A speed=7.07x    frame= 5595 fps=170 q=-0.0 size=N/A time=00:03:53.35 bitrate=N/A speed=7.07x    frame= 5683 fps=170 q=-0.0 size=N/A time=00:03:57.02 bitrate=N/A speed=7.07x    frame= 5774 fps=170 q=-0.0 size=N/A time=00:04:00.82 bitrate=N/A speed=7.08x    frame= 5862 fps=170 q=-0.0 size=N/A time=00:04:04.49 bitrate=N/A speed=7.08x    frame= 5949 fps=170 q=-0.0 size=N/A time=00:04:08.12 bitrate=N/A speed=7.08x    frame= 6037 fps=170 q=-0.0 size=N/A time=00:04:11.79 bitrate=N/A speed=7.08x    frame= 6124 fps=170 q=-0.0 size=N/A time=00:04:15.42 bitrate=N/A speed=7.08x    frame= 6214 fps=170 q=-0.0 size=N/A time=00:04:19.17 bitrate=N/A speed=7.08x    frame= 6300 fps=170 q=-0.0 size=N/A time=00:04:22.76 bitrate=N/A speed=7.08x    frame= 6390 fps=170 q=-0.0 size=N/A time=00:04:26.51 bitrate=N/A speed=7.08x    frame= 6483 fps=170 q=-0.0 size=N/A time=00:04:30.39 bitrate=N/A speed=7.09x    frame= 6572 fps=170 q=-0.0 size=N/A time=00:04:34.10 bitrate=N/A speed=7.09x    frame= 6662 fps=170 q=-0.0 size=N/A time=00:04:37.86 bitrate=N/A speed=7.09x    frame= 6749 fps=170 q=-0.0 size=N/A time=00:04:41.48 bitrate=N/A speed=7.09x    frame= 6844 fps=170 q=-0.0 size=N/A time=00:04:45.45 bitrate=N/A speed= 7.1x    frame= 6934 fps=170 q=-0.0 size=N/A time=00:04:49.20 bitrate=N/A speed= 7.1x    frame= 7025 fps=170 q=-0.0 size=N/A time=00:04:53.00 bitrate=N/A speed= 7.1x    frame= 7111 fps=170 q=-0.0 size=N/A time=00:04:56.58 bitrate=N/A speed= 7.1x    frame= 7202 fps=170 q=-0.0 size=N/A time=00:05:00.38 bitrate=N/A speed= 7.1x    frame= 7291 fps=170 q=-0.0 size=N/A time=00:05:04.09 bitrate=N/A speed=7.11x    frame= 7377 fps=170 q=-0.0 size=N/A time=00:05:07.68 bitrate=N/A speed= 7.1x    frame= 7456 fps=170 q=-0.0 size=N/A time=00:05:10.97 bitrate=N/A speed= 7.1x    frame= 7547 fps=170 q=-0.0 size=N/A time=00:05:14.77 bitrate=N/A speed= 7.1x    frame= 7634 fps=170 q=-0.0 size=N/A time=00:05:18.40 bitrate=N/A speed= 7.1x    frame= 7718 fps=170 q=-0.0 size=N/A time=00:05:21.90 bitrate=N/A speed= 7.1x    frame= 7809 fps=170 q=-0.0 size=N/A time=00:05:25.70 bitrate=N/A speed= 7.1x    frame= 7894 fps=170 q=-0.0 size=N/A time=00:05:29.24 bitrate=N/A speed= 7.1x    frame= 7981 fps=170 q=-0.0 size=N/A time=00:05:32.87 bitrate=N/A speed=7.09x    frame= 8065 fps=170 q=-0.0 size=N/A time=00:05:36.37 bitrate=N/A speed=7.09x    frame= 8157 fps=170 q=-0.0 size=N/A time=00:05:40.21 bitrate=N/A speed= 7.1x    frame= 8245 fps=170 q=-0.0 size=N/A time=00:05:43.88 bitrate=N/A speed= 7.1x    frame= 8335 fps=170 q=-0.0 size=N/A time=00:05:47.63 bitrate=N/A speed= 7.1x    frame= 8423 fps=170 q=-0.0 size=N/A time=00:05:51.30 bitrate=N/A speed= 7.1x    frame= 8516 fps=170 q=-0.0 size=N/A time=00:05:55.18 bitrate=N/A speed= 7.1x    frame= 8606 fps=170 q=-0.0 size=N/A time=00:05:58.94 bitrate=N/A speed= 7.1x    frame= 8697 fps=170 q=-0.0 size=N/A time=00:06:02.73 bitrate=N/A speed=7.11x    frame= 8780 fps=170 q=-0.0 size=N/A time=00:06:06.19 bitrate=N/A speed= 7.1x    frame= 8872 fps=170 q=-0.0 size=N/A time=00:06:10.03 bitrate=N/A speed=7.11x    frame= 8962 fps=170 q=-0.0 size=N/A time=00:06:13.79 bitrate=N/A speed=7.11x    frame= 9049 fps=170 q=-0.0 size=N/A time=00:06:17.41 bitrate=N/A speed=7.11x    frame= 9129 fps=170 q=-0.0 size=N/A time=00:06:20.75 bitrate=N/A speed= 7.1x    frame= 9214 fps=170 q=-0.0 size=N/A time=00:06:24.30 bitrate=N/A speed= 7.1x    frame= 9296 fps=170 q=-0.0 size=N/A time=00:06:27.72 bitrate=N/A speed=7.09x    frame= 9382 fps=170 q=-0.0 size=N/A time=00:06:31.30 bitrate=N/A speed=7.09x    frame= 9470 fps=170 q=-0.0 size=N/A time=00:06:34.97 bitrate=N/A speed=7.09x    frame= 9557 fps=170 q=-0.0 size=N/A time=00:06:38.60 bitrate=N/A speed=7.09x    frame= 9647 fps=170 q=-0.0 size=N/A time=00:06:42.36 bitrate=N/A speed=7.09x    frame= 9740 fps=170 q=-0.0 size=N/A time=00:06:46.23 bitrate=N/A speed= 7.1x    frame= 9828 fps=170 q=-0.0 size=N/A time=00:06:49.90 bitrate=N/A speed= 7.1x    frame= 9917 fps=170 q=-0.0 size=N/A time=00:06:53.62 bitrate=N/A speed= 7.1x    frame=10004 fps=170 q=-0.0 size=N/A time=00:06:57.25 bitrate=N/A speed= 7.1x    frame=10095 fps=170 q=-0.0 size=N/A time=00:07:01.04 bitrate=N/A speed= 7.1x    frame=10182 fps=170 q=-0.0 size=N/A time=00:07:04.67 bitrate=N/A speed= 7.1x    frame=10275 fps=170 q=-0.0 size=N/A time=00:07:08.55 bitrate=N/A speed= 7.1x    frame=10364 fps=170 q=-0.0 size=N/A time=00:07:12.26 bitrate=N/A speed= 7.1x    frame=10452 fps=170 q=-0.0 size=N/A time=00:07:15.93 bitrate=N/A speed= 7.1x    frame=10539 fps=170 q=-0.0 size=N/A time=00:07:19.56 bitrate=N/A speed= 7.1x    frame=10629 fps=170 q=-0.0 size=N/A time=00:07:23.31 bitrate=N/A speed=7.11x    frame=10714 fps=170 q=-0.0 size=N/A time=00:07:26.86 bitrate=N/A speed= 7.1x    frame=10805 fps=170 q=-0.0 size=N/A time=00:07:30.65 bitrate=N/A speed=7.11x    frame=10891 fps=170 q=-0.0 size=N/A time=00:07:34.24 bitrate=N/A speed= 7.1x    frame=10976 fps=170 q=-0.0 size=N/A time=00:07:37.79 bitrate=N/A speed= 7.1x    frame=11064 fps=170 q=-0.0 size=N/A time=00:07:41.46 bitrate=N/A speed= 7.1x    frame=11151 fps=170 q=-0.0 size=N/A time=00:07:45.08 bitrate=N/A speed= 7.1x    frame=11244 fps=170 q=-0.0 size=N/A time=00:07:48.96 bitrate=N/A speed=7.11x    frame=11327 fps=170 q=-0.0 size=N/A time=00:07:52.43 bitrate=N/A speed= 7.1x    frame=11415 fps=170 q=-0.0 size=N/A time=00:07:56.10 bitrate=N/A speed= 7.1x    frame=11510 fps=170 q=-0.0 size=N/A time=00:08:00.06 bitrate=N/A speed=7.11x    frame=11600 fps=170 q=-0.0 size=N/A time=00:08:03.81 bitrate=N/A speed=7.11x    frame=11691 fps=170 q=-0.0 size=N/A time=00:08:07.61 bitrate=N/A speed=7.11x    frame=11783 fps=171 q=-0.0 size=N/A time=00:08:11.44 bitrate=N/A speed=7.11x    frame=11864 fps=170 q=-0.0 size=N/A time=00:08:14.82 bitrate=N/A speed=7.11x    frame=11954 fps=170 q=-0.0 size=N/A time=00:08:18.58 bitrate=N/A speed=7.11x    frame=12049 fps=171 q=-0.0 size=N/A time=00:08:22.54 bitrate=N/A speed=7.11x    frame=12142 fps=171 q=-0.0 size=N/A time=00:08:26.42 bitrate=N/A speed=7.12x    frame=12219 fps=170 q=-0.0 size=N/A time=00:08:29.63 bitrate=N/A speed=7.11x    frame=12319 fps=171 q=-0.0 size=N/A time=00:08:33.80 bitrate=N/A speed=7.12x    frame=12405 fps=171 q=-0.0 size=N/A time=00:08:37.39 bitrate=N/A speed=7.12x    frame=12490 fps=171 q=-0.0 size=N/A time=00:08:40.93 bitrate=N/A speed=7.12x    frame=12575 fps=171 q=-0.0 size=N/A time=00:08:44.48 bitrate=N/A speed=7.11x    frame=12659 fps=170 q=-0.0 size=N/A time=00:08:47.98 bitrate=N/A speed=7.11x    frame=12746 fps=170 q=-0.0 size=N/A time=00:08:51.61 bitrate=N/A speed=7.11x    frame=12830 fps=170 q=-0.0 size=N/A time=00:08:55.11 bitrate=N/A speed=7.11x    frame=12918 fps=170 q=-0.0 size=N/A time=00:08:58.78 bitrate=N/A speed=7.11x    frame=13008 fps=170 q=-0.0 size=N/A time=00:09:02.54 bitrate=N/A speed=7.11x    frame=13098 fps=170 q=-0.0 size=N/A time=00:09:06.29 bitrate=N/A speed=7.11x    frame=13191 fps=171 q=-0.0 size=N/A time=00:09:10.17 bitrate=N/A speed=7.11x    frame=13288 fps=171 q=-0.0 size=N/A time=00:09:14.22 bitrate=N/A speed=7.12x    frame=13380 fps=171 q=-0.0 size=N/A time=00:09:18.05 bitrate=N/A speed=7.12x    frame=13469 fps=171 q=-0.0 size=N/A time=00:09:21.76 bitrate=N/A speed=7.12x    frame=13559 fps=171 q=-0.0 size=N/A time=00:09:25.52 bitrate=N/A speed=7.12x    frame=13645 fps=171 q=-0.0 size=N/A time=00:09:29.11 bitrate=N/A speed=7.12x    frame=13746 fps=171 q=-0.0 size=N/A time=00:09:33.32 bitrate=N/A speed=7.13x    frame=13839 fps=171 q=-0.0 size=N/A time=00:09:37.20 bitrate=N/A speed=7.13x    frame=13927 fps=171 q=-0.0 size=N/A time=00:09:40.87 bitrate=N/A speed=7.13x    frame=14014 fps=171 q=-0.0 size=N/A time=00:09:44.50 bitrate=N/A speed=7.13x    frame=14094 fps=171 q=-0.0 size=N/A time=00:09:47.83 bitrate=N/A speed=7.13x    frame=14185 fps=171 q=-0.0 size=N/A time=00:09:51.63 bitrate=N/A speed=7.13x    frame=14270 fps=171 q=-0.0 size=N/A time=00:09:55.17 bitrate=N/A speed=7.13x    frame=14356 fps=171 q=-0.0 size=N/A time=00:09:58.76 bitrate=N/A speed=7.12x    frame=14438 fps=171 q=-0.0 size=N/A time=00:10:02.18 bitrate=N/A speed=7.12x    frame=14529 fps=171 q=-0.0 size=N/A time=00:10:05.98 bitrate=N/A speed=7.12x    frame=14620 fps=171 q=-0.0 size=N/A time=00:10:09.77 bitrate=N/A speed=7.12x    frame=14713 fps=171 q=-0.0 size=N/A time=00:10:13.65 bitrate=N/A speed=7.13x    frame=14800 fps=171 q=-0.0 size=N/A time=00:10:17.28 bitrate=N/A speed=7.13x    frame=14881 fps=171 q=-0.0 size=N/A time=00:10:20.66 bitrate=N/A speed=7.12x    frame=14977 fps=171 q=-0.0 size=N/A time=00:10:24.66 bitrate=N/A speed=7.13x    frame=15071 fps=171 q=-0.0 size=N/A time=00:10:28.58 bitrate=N/A speed=7.13x    frame=15157 fps=171 q=-0.0 size=N/A time=00:10:32.17 bitrate=N/A speed=7.13x    frame=15246 fps=171 q=-0.0 size=N/A time=00:10:35.88 bitrate=N/A speed=7.13x    frame=15333 fps=171 q=-0.0 size=N/A time=00:10:39.51 bitrate=N/A speed=7.13x    frame=15414 fps=171 q=-0.0 size=N/A time=00:10:42.89 bitrate=N/A speed=7.12x    frame=15505 fps=171 q=-0.0 size=N/A time=00:10:46.68 bitrate=N/A speed=7.13x    frame=15595 fps=171 q=-0.0 size=N/A time=00:10:50.44 bitrate=N/A speed=7.13x    frame=15684 fps=171 q=-0.0 size=N/A time=00:10:54.15 bitrate=N/A speed=7.13x    frame=15765 fps=171 q=-0.0 size=N/A time=00:10:57.53 bitrate=N/A speed=7.12x    frame=15859 fps=171 q=-0.0 size=N/A time=00:11:01.45 bitrate=N/A speed=7.13x    frame=15941 fps=171 q=-0.0 size=N/A time=00:11:04.87 bitrate=N/A speed=7.12x    frame=16032 fps=171 q=-0.0 size=N/A time=00:11:08.66 bitrate=N/A speed=7.13x    frame=16116 fps=171 q=-0.0 size=N/A time=00:11:12.17 bitrate=N/A speed=7.12x    frame=16200 fps=171 q=-0.0 size=N/A time=00:11:15.67 bitrate=N/A speed=7.12x    frame=16290 fps=171 q=-0.0 size=N/A time=00:11:19.42 bitrate=N/A speed=7.12x    frame=16377 fps=171 q=-0.0 size=N/A time=00:11:23.05 bitrate=N/A speed=7.12x    frame=16462 fps=171 q=-0.0 size=N/A time=00:11:26.60 bitrate=N/A speed=7.12x    frame=16552 fps=171 q=-0.0 size=N/A time=00:11:30.35 bitrate=N/A speed=7.12x    frame=16640 fps=171 q=-0.0 size=N/A time=00:11:34.02 bitrate=N/A speed=7.12x    frame=16722 fps=171 q=-0.0 size=N/A time=00:11:37.44 bitrate=N/A speed=7.12x    frame=16817 fps=171 q=-0.0 size=N/A time=00:11:41.40 bitrate=N/A speed=7.12x    frame=16903 fps=171 q=-0.0 size=N/A time=00:11:44.99 bitrate=N/A speed=7.12x    frame=16991 fps=171 q=-0.0 size=N/A time=00:11:48.66 bitrate=N/A speed=7.12x    frame=17071 fps=171 q=-0.0 size=N/A time=00:11:52.00 bitrate=N/A speed=7.12x    frame=17165 fps=171 q=-0.0 size=N/A time=00:11:55.92 bitrate=N/A speed=7.12x    frame=17247 fps=171 q=-0.0 size=N/A time=00:11:59.34 bitrate=N/A speed=7.12x    frame=17342 fps=171 q=-0.0 size=N/A time=00:12:03.30 bitrate=N/A speed=7.12x    frame=17431 fps=171 q=-0.0 size=N/A time=00:12:07.01 bitrate=N/A speed=7.12x    frame=17505 fps=171 q=-0.0 size=N/A time=00:12:10.10 bitrate=N/A speed=7.11x    frame=17589 fps=171 q=-0.0 size=N/A time=00:12:13.60 bitrate=N/A speed=7.11x    frame=17681 fps=171 q=-0.0 size=N/A time=00:12:17.44 bitrate=N/A speed=7.11x    frame=17763 fps=171 q=-0.0 size=N/A time=00:12:20.86 bitrate=N/A speed=7.11x    frame=17839 fps=170 q=-0.0 size=N/A time=00:12:24.03 bitrate=N/A speed=7.11x    frame=17933 fps=170 q=-0.0 size=N/A time=00:12:27.95 bitrate=N/A speed=7.11x    frame=18020 fps=170 q=-0.0 size=N/A time=00:12:31.58 bitrate=N/A speed=7.11x    frame=18104 fps=170 q=-0.0 size=N/A time=00:12:35.08 bitrate=N/A speed=7.11x    frame=18189 fps=170 q=-0.0 size=N/A time=00:12:38.63 bitrate=N/A speed=7.11x    frame=18278 fps=170 q=-0.0 size=N/A time=00:12:42.34 bitrate=N/A speed=7.11x    frame=18360 fps=170 q=-0.0 size=N/A time=00:12:45.76 bitrate=N/A speed=7.11x    frame=18454 fps=170 q=-0.0 size=N/A time=00:12:49.68 bitrate=N/A speed=7.11x    frame=18530 fps=170 q=-0.0 size=N/A time=00:12:52.85 bitrate=N/A speed= 7.1x    frame=18619 fps=170 q=-0.0 size=N/A time=00:12:56.56 bitrate=N/A speed= 7.1x    frame=18718 fps=170 q=-0.0 size=N/A time=00:13:00.69 bitrate=N/A speed=7.11x    frame=18805 fps=170 q=-0.0 size=N/A time=00:13:04.32 bitrate=N/A speed=7.11x    frame=18901 fps=170 q=-0.0 size=N/A time=00:13:08.32 bitrate=N/A speed=7.11x    frame=18982 fps=170 q=-0.0 size=N/A time=00:13:11.70 bitrate=N/A speed=7.11x    frame=19068 fps=170 q=-0.0 size=N/A time=00:13:15.29 bitrate=N/A speed=7.11x    frame=19167 fps=170 q=-0.0 size=N/A time=00:13:19.42 bitrate=N/A speed=7.11x    frame=19258 fps=170 q=-0.0 size=N/A time=00:13:23.21 bitrate=N/A speed=7.11x    frame=19339 fps=170 q=-0.0 size=N/A time=00:13:26.59 bitrate=N/A speed=7.11x    frame=19433 fps=170 q=-0.0 size=N/A time=00:13:30.51 bitrate=N/A speed=7.11x    frame=19518 fps=170 q=-0.0 size=N/A time=00:13:34.06 bitrate=N/A speed=7.11x    frame=19603 fps=170 q=-0.0 size=N/A time=00:13:37.60 bitrate=N/A speed=7.11x    frame=19692 fps=170 q=-0.0 size=N/A time=00:13:41.32 bitrate=N/A speed=7.11x    frame=19777 fps=170 q=-0.0 size=N/A time=00:13:44.86 bitrate=N/A speed=7.11x    frame=19861 fps=170 q=-0.0 size=N/A time=00:13:48.36 bitrate=N/A speed=7.11x    frame=19941 fps=170 q=-0.0 size=N/A time=00:13:51.70 bitrate=N/A speed= 7.1x    frame=20033 fps=170 q=-0.0 size=N/A time=00:13:55.54 bitrate=N/A speed=7.11x    frame=20116 fps=170 q=-0.0 size=N/A time=00:13:59.00 bitrate=N/A speed= 7.1x    frame=20201 fps=170 q=-0.0 size=N/A time=00:14:02.55 bitrate=N/A speed= 7.1x    frame=20297 fps=170 q=-0.0 size=N/A time=00:14:06.55 bitrate=N/A speed=7.11x    frame=20390 fps=170 q=-0.0 size=N/A time=00:14:10.43 bitrate=N/A speed=7.11x    frame=20473 fps=170 q=-0.0 size=N/A time=00:14:13.89 bitrate=N/A speed=7.11x    frame=20563 fps=170 q=-0.0 size=N/A time=00:14:17.64 bitrate=N/A speed=7.11x    frame=20653 fps=170 q=-0.0 size=N/A time=00:14:21.40 bitrate=N/A speed=7.11x    frame=20744 fps=170 q=-0.0 size=N/A time=00:14:25.19 bitrate=N/A speed=7.11x    frame=20834 fps=170 q=-0.0 size=N/A time=00:14:28.95 bitrate=N/A speed=7.11x    frame=20927 fps=170 q=-0.0 size=N/A time=00:14:32.83 bitrate=N/A speed=7.11x    frame=21017 fps=171 q=-0.0 size=N/A time=00:14:36.58 bitrate=N/A speed=7.11x    frame=21105 fps=171 q=-0.0 size=N/A time=00:14:40.25 bitrate=N/A speed=7.11x    frame=21195 fps=171 q=-0.0 size=N/A time=00:14:44.00 bitrate=N/A speed=7.11x    frame=21283 fps=171 q=-0.0 size=N/A time=00:14:47.67 bitrate=N/A speed=7.11x    frame=21369 fps=171 q=-0.0 size=N/A time=00:14:51.26 bitrate=N/A speed=7.11x    frame=21454 fps=170 q=-0.0 size=N/A time=00:14:54.81 bitrate=N/A speed=7.11x    frame=21534 fps=170 q=-0.0 size=N/A time=00:14:58.14 bitrate=N/A speed=7.11x    frame=21631 fps=171 q=-0.0 size=N/A time=00:15:02.19 bitrate=N/A speed=7.11x    frame=21720 fps=171 q=-0.0 size=N/A time=00:15:05.90 bitrate=N/A speed=7.11x    frame=21809 fps=171 q=-0.0 size=N/A time=00:15:09.61 bitrate=N/A speed=7.11x    frame=21894 fps=170 q=-0.0 size=N/A time=00:15:13.16 bitrate=N/A speed=7.11x    frame=21970 fps=170 q=-0.0 size=N/A time=00:15:16.33 bitrate=N/A speed=7.11x    frame=22059 fps=170 q=-0.0 size=N/A time=00:15:20.04 bitrate=N/A speed=7.11x    frame=22140 fps=170 q=-0.0 size=N/A time=00:15:23.42 bitrate=N/A speed=7.11x    frame=22236 fps=170 q=-0.0 size=N/A time=00:15:27.42 bitrate=N/A speed=7.11x    frame=22320 fps=170 q=-0.0 size=N/A time=00:15:30.93 bitrate=N/A speed=7.11x    frame=22410 fps=170 q=-0.0 size=N/A time=00:15:34.68 bitrate=N/A speed=7.11x    frame=22499 fps=170 q=-0.0 size=N/A time=00:15:38.39 bitrate=N/A speed=7.11x    frame=22586 fps=170 q=-0.0 size=N/A time=00:15:42.02 bitrate=N/A speed=7.11x    frame=22671 fps=170 q=-0.0 size=N/A time=00:15:45.56 bitrate=N/A speed=7.11x    frame=22758 fps=170 q=-0.0 size=N/A time=00:15:49.19 bitrate=N/A speed=7.11x    frame=22843 fps=170 q=-0.0 size=N/A time=00:15:52.74 bitrate=N/A speed=7.11x    frame=22931 fps=170 q=-0.0 size=N/A time=00:15:56.41 bitrate=N/A speed=7.11x    frame=23017 fps=170 q=-0.0 size=N/A time=00:16:00.00 bitrate=N/A speed= 7.1x    frame=23095 fps=170 q=-0.0 size=N/A time=00:16:03.25 bitrate=N/A speed= 7.1x    frame=23190 fps=170 q=-0.0 size=N/A time=00:16:07.21 bitrate=N/A speed= 7.1x    frame=23273 fps=170 q=-0.0 size=N/A time=00:16:10.67 bitrate=N/A speed= 7.1x    frame=23366 fps=170 q=-0.0 size=N/A time=00:16:14.55 bitrate=N/A speed= 7.1x    frame=23458 fps=170 q=-0.0 size=N/A time=00:16:18.39 bitrate=N/A speed=7.11x    frame=23547 fps=170 q=-0.0 size=N/A time=00:16:22.10 bitrate=N/A speed=7.11x    frame=23632 fps=170 q=-0.0 size=N/A time=00:16:25.65 bitrate=N/A speed= 7.1x    frame=23715 fps=170 q=-0.0 size=N/A time=00:16:29.11 bitrate=N/A speed= 7.1x    frame=23806 fps=170 q=-0.0 size=N/A time=00:16:32.90 bitrate=N/A speed= 7.1x    frame=23897 fps=170 q=-0.0 size=N/A time=00:16:36.70 bitrate=N/A speed=7.11x    frame=23984 fps=170 q=-0.0 size=N/A time=00:16:40.33 bitrate=N/A speed=7.11x    frame=24073 fps=170 q=-0.0 size=N/A time=00:16:44.04 bitrate=N/A speed=7.11x    frame=24162 fps=170 q=-0.0 size=N/A time=00:16:47.75 bitrate=N/A speed=7.11x    frame=24245 fps=170 q=-0.0 size=N/A time=00:16:51.21 bitrate=N/A speed= 7.1x    frame=24327 fps=170 q=-0.0 size=N/A time=00:16:54.63 bitrate=N/A speed= 7.1x    frame=24409 fps=170 q=-0.0 size=N/A time=00:16:58.05 bitrate=N/A speed= 7.1x    frame=24493 fps=170 q=-0.0 size=N/A time=00:17:01.56 bitrate=N/A speed= 7.1x    frame=24573 fps=170 q=-0.0 size=N/A time=00:17:04.89 bitrate=N/A speed= 7.1x    frame=24652 fps=170 q=-0.0 size=N/A time=00:17:08.19 bitrate=N/A speed= 7.1x    frame=24754 fps=170 q=-0.0 size=N/A time=00:17:12.44 bitrate=N/A speed= 7.1x    frame=24843 fps=170 q=-0.0 size=N/A time=00:17:16.16 bitrate=N/A speed= 7.1x    frame=24923 fps=170 q=-0.0 size=N/A time=00:17:19.49 bitrate=N/A speed= 7.1x    frame=25013 fps=170 q=-0.0 size=N/A time=00:17:23.25 bitrate=N/A speed= 7.1x    frame=25097 fps=170 q=-0.0 size=N/A time=00:17:26.75 bitrate=N/A speed= 7.1x    frame=25196 fps=170 q=-0.0 size=N/A time=00:17:30.88 bitrate=N/A speed= 7.1x    frame=25284 fps=170 q=-0.0 size=N/A time=00:17:34.55 bitrate=N/A speed= 7.1x    frame=25370 fps=170 q=-0.0 size=N/A time=00:17:38.14 bitrate=N/A speed= 7.1x    frame=25462 fps=170 q=-0.0 size=N/A time=00:17:41.97 bitrate=N/A speed= 7.1x    frame=25552 fps=170 q=-0.0 size=N/A time=00:17:45.73 bitrate=N/A speed= 7.1x    frame=25642 fps=170 q=-0.0 size=N/A time=00:17:49.48 bitrate=N/A speed= 7.1x    frame=25729 fps=170 q=-0.0 size=N/A time=00:17:53.11 bitrate=N/A speed= 7.1x    frame=25817 fps=170 q=-0.0 size=N/A time=00:17:56.78 bitrate=N/A speed= 7.1x    frame=25903 fps=170 q=-0.0 size=N/A time=00:18:00.37 bitrate=N/A speed= 7.1x    frame=25987 fps=170 q=-0.0 size=N/A time=00:18:03.87 bitrate=N/A speed= 7.1x    frame=26067 fps=170 q=-0.0 size=N/A time=00:18:07.21 bitrate=N/A speed= 7.1x    frame=26159 fps=170 q=-0.0 size=N/A time=00:18:11.04 bitrate=N/A speed= 7.1x    frame=26249 fps=170 q=-0.0 size=N/A time=00:18:14.80 bitrate=N/A speed= 7.1x    frame=26339 fps=170 q=-0.0 size=N/A time=00:18:18.55 bitrate=N/A speed= 7.1x    frame=26424 fps=170 q=-0.0 size=N/A time=00:18:22.10 bitrate=N/A speed= 7.1x    frame=26513 fps=170 q=-0.0 size=N/A time=00:18:25.81 bitrate=N/A speed= 7.1x    frame=26605 fps=170 q=-0.0 size=N/A time=00:18:29.65 bitrate=N/A speed= 7.1x    frame=26696 fps=170 q=-0.0 size=N/A time=00:18:33.44 bitrate=N/A speed= 7.1x    frame=26785 fps=170 q=-0.0 size=N/A time=00:18:37.15 bitrate=N/A speed= 7.1x    frame=26875 fps=170 q=-0.0 size=N/A time=00:18:40.91 bitrate=N/A speed= 7.1x    frame=26961 fps=170 q=-0.0 size=N/A time=00:18:44.49 bitrate=N/A speed= 7.1x    frame=27050 fps=170 q=-0.0 size=N/A time=00:18:48.21 bitrate=N/A speed= 7.1x    frame=27140 fps=170 q=-0.0 size=N/A time=00:18:51.96 bitrate=N/A speed= 7.1x    frame=27234 fps=170 q=-0.0 size=N/A time=00:18:55.88 bitrate=N/A speed= 7.1x    frame=27317 fps=170 q=-0.0 size=N/A time=00:18:59.34 bitrate=N/A speed= 7.1x    frame=27406 fps=170 q=-0.0 size=N/A time=00:19:03.05 bitrate=N/A speed= 7.1x    frame=27492 fps=170 q=-0.0 size=N/A time=00:19:06.64 bitrate=N/A speed= 7.1x    frame=27574 fps=170 q=-0.0 size=N/A time=00:19:10.06 bitrate=N/A speed= 7.1x    frame=27665 fps=170 q=-0.0 size=N/A time=00:19:13.86 bitrate=N/A speed= 7.1x    frame=27752 fps=170 q=-0.0 size=N/A time=00:19:17.48 bitrate=N/A speed= 7.1x    frame=27835 fps=170 q=-0.0 size=N/A time=00:19:20.95 bitrate=N/A speed= 7.1x    frame=27933 fps=170 q=-0.0 size=N/A time=00:19:25.03 bitrate=N/A speed= 7.1x    frame=28018 fps=170 q=-0.0 size=N/A time=00:19:28.58 bitrate=N/A speed= 7.1x    frame=28114 fps=170 q=-0.0 size=N/A time=00:19:32.58 bitrate=N/A speed=7.11x    frame=28209 fps=170 q=-0.0 size=N/A time=00:19:36.55 bitrate=N/A speed=7.11x    frame=28302 fps=170 q=-0.0 size=N/A time=00:19:40.42 bitrate=N/A speed=7.11x    frame=28391 fps=170 q=-0.0 size=N/A time=00:19:44.14 bitrate=N/A speed=7.11x    frame=28486 fps=170 q=-0.0 size=N/A time=00:19:48.10 bitrate=N/A speed=7.11x    frame=28579 fps=171 q=-0.0 size=N/A time=00:19:51.98 bitrate=N/A speed=7.11x    frame=28674 fps=171 q=-0.0 size=N/A time=00:19:55.94 bitrate=N/A speed=7.11x    frame=28766 fps=171 q=-0.0 size=N/A time=00:19:59.78 bitrate=N/A speed=7.11x    frame=28858 fps=171 q=-0.0 size=N/A time=00:20:03.61 bitrate=N/A speed=7.11x    frame=28947 fps=171 q=-0.0 size=N/A time=00:20:07.33 bitrate=N/A speed=7.11x    frame=29034 fps=171 q=-0.0 size=N/A time=00:20:10.95 bitrate=N/A speed=7.12x    frame=29124 fps=171 q=-0.0 size=N/A time=00:20:14.71 bitrate=N/A speed=7.12x    frame=29212 fps=171 q=-0.0 size=N/A time=00:20:18.38 bitrate=N/A speed=7.12x    frame=29299 fps=171 q=-0.0 size=N/A time=00:20:22.01 bitrate=N/A speed=7.12x    frame=29384 fps=171 q=-0.0 size=N/A time=00:20:25.55 bitrate=N/A speed=7.11x    frame=29474 fps=171 q=-0.0 size=N/A time=00:20:29.31 bitrate=N/A speed=7.12x    frame=29559 fps=171 q=-0.0 size=N/A time=00:20:32.85 bitrate=N/A speed=7.11x    frame=29651 fps=171 q=-0.0 size=N/A time=00:20:36.69 bitrate=N/A speed=7.12x    frame=29741 fps=171 q=-0.0 size=N/A time=00:20:40.44 bitrate=N/A speed=7.12x    frame=29828 fps=171 q=-0.0 size=N/A time=00:20:44.07 bitrate=N/A speed=7.12x    frame=29917 fps=171 q=-0.0 size=N/A time=00:20:47.78 bitrate=N/A speed=7.12x    frame=30007 fps=171 q=-0.0 size=N/A time=00:20:51.54 bitrate=N/A speed=7.12x    frame=30099 fps=171 q=-0.0 size=N/A time=00:20:55.37 bitrate=N/A speed=7.12x    frame=30189 fps=171 q=-0.0 size=N/A time=00:20:59.13 bitrate=N/A speed=7.12x    frame=30278 fps=171 q=-0.0 size=N/A time=00:21:02.84 bitrate=N/A speed=7.12x    frame=30359 fps=171 q=-0.0 size=N/A time=00:21:06.22 bitrate=N/A speed=7.12x    frame=30457 fps=171 q=-0.0 size=N/A time=00:21:10.31 bitrate=N/A speed=7.12x    frame=30548 fps=171 q=-0.0 size=N/A time=00:21:14.10 bitrate=N/A speed=7.12x    frame=30637 fps=171 q=-0.0 size=N/A time=00:21:17.81 bitrate=N/A speed=7.12x    frame=30725 fps=171 q=-0.0 size=N/A time=00:21:21.48 bitrate=N/A speed=7.12x    frame=30815 fps=171 q=-0.0 size=N/A time=00:21:25.24 bitrate=N/A speed=7.12x    frame=30903 fps=171 q=-0.0 size=N/A time=00:21:28.91 bitrate=N/A speed=7.12x    frame=30991 fps=171 q=-0.0 size=N/A time=00:21:32.58 bitrate=N/A speed=7.12x    frame=31080 fps=171 q=-0.0 size=N/A time=00:21:36.29 bitrate=N/A speed=7.12x    frame=31171 fps=171 q=-0.0 size=N/A time=00:21:40.09 bitrate=N/A speed=7.12x    frame=31255 fps=171 q=-0.0 size=N/A time=00:21:43.59 bitrate=N/A speed=7.12x    frame=31352 fps=171 q=-0.0 size=N/A time=00:21:47.63 bitrate=N/A speed=7.12x    frame=31443 fps=171 q=-0.0 size=N/A time=00:21:51.43 bitrate=N/A speed=7.12x    frame=31531 fps=171 q=-0.0 size=N/A time=00:21:55.10 bitrate=N/A speed=7.12x    frame=31626 fps=171 q=-0.0 size=N/A time=00:21:59.06 bitrate=N/A speed=7.12x    frame=31719 fps=171 q=-0.0 size=N/A time=00:22:02.94 bitrate=N/A speed=7.13x    frame=31810 fps=171 q=-0.0 size=N/A time=00:22:06.74 bitrate=N/A speed=7.13x    frame=31899 fps=171 q=-0.0 size=N/A time=00:22:10.45 bitrate=N/A speed=7.13x    frame=31989 fps=171 q=-0.0 size=N/A time=00:22:14.20 bitrate=N/A speed=7.13x    frame=32085 fps=171 q=-0.0 size=N/A time=00:22:18.21 bitrate=N/A speed=7.13x    frame=32163 fps=171 q=-0.0 size=N/A time=00:22:21.46 bitrate=N/A speed=7.13x    frame=32256 fps=171 q=-0.0 size=N/A time=00:22:25.34 bitrate=N/A speed=7.13x    frame=32347 fps=171 q=-0.0 size=N/A time=00:22:29.13 bitrate=N/A speed=7.13x    frame=32440 fps=171 q=-0.0 size=N/A time=00:22:33.01 bitrate=N/A speed=7.13x    frame=32528 fps=171 q=-0.0 size=N/A time=00:22:36.68 bitrate=N/A speed=7.13x    frame=32606 fps=171 q=-0.0 size=N/A time=00:22:39.94 bitrate=N/A speed=7.13x    frame=32695 fps=171 q=-0.0 size=N/A time=00:22:43.65 bitrate=N/A speed=7.13x    frame=32789 fps=171 q=-0.0 size=N/A time=00:22:47.57 bitrate=N/A speed=7.13x    frame=32877 fps=171 q=-0.0 size=N/A time=00:22:51.24 bitrate=N/A speed=7.13x    frame=32965 fps=171 q=-0.0 size=N/A time=00:22:54.91 bitrate=N/A speed=7.13x    frame=33054 fps=171 q=-0.0 size=N/A time=00:22:58.62 bitrate=N/A speed=7.13x    frame=33144 fps=171 q=-0.0 size=N/A time=00:23:02.38 bitrate=N/A speed=7.13x    frame=33225 fps=171 q=-0.0 size=N/A time=00:23:05.75 bitrate=N/A speed=7.13x    frame=33320 fps=171 q=-0.0 size=N/A time=00:23:09.72 bitrate=N/A speed=7.13x    frame=33411 fps=171 q=-0.0 size=N/A time=00:23:13.51 bitrate=N/A speed=7.13x    frame=33502 fps=171 q=-0.0 size=N/A time=00:23:17.31 bitrate=N/A speed=7.13x    frame=33586 fps=171 q=-0.0 size=N/A time=00:23:20.81 bitrate=N/A speed=7.13x    frame=33680 fps=171 q=-0.0 size=N/A time=00:23:24.73 bitrate=N/A speed=7.13x    frame=33767 fps=171 q=-0.0 size=N/A time=00:23:28.36 bitrate=N/A speed=7.13x    frame=33855 fps=171 q=-0.0 size=N/A time=00:23:32.03 bitrate=N/A speed=7.13x    frame=33940 fps=171 q=-0.0 size=N/A time=00:23:35.58 bitrate=N/A speed=7.13x    frame=34024 fps=171 q=-0.0 size=N/A time=00:23:39.08 bitrate=N/A speed=7.13x    frame=34111 fps=171 q=-0.0 size=N/A time=00:23:42.71 bitrate=N/A speed=7.13x    frame=34200 fps=171 q=-0.0 size=N/A time=00:23:46.42 bitrate=N/A speed=7.13x    frame=34291 fps=171 q=-0.0 size=N/A time=00:23:50.22 bitrate=N/A speed=7.13x    frame=34382 fps=171 q=-0.0 size=N/A time=00:23:54.01 bitrate=N/A speed=7.13x    [Parsed_ssim_10 @ 000001d90e663080] SSIM Y:0.992615 (21.316542) U:0.993893 (22.141513) V:0.994128 (22.312238) All:0.993080 (21.599060)
[out#0/null @ 000001d90caa97c0] video:14805KiB audio:269464KiB subtitle:0KiB other streams:0KiB global headers:0KiB muxing overhead: unknown
frame=34456 fps=171 q=-0.0 Lsize=N/A time=00:23:57.10 bitrate=N/A speed=7.13x    
